HIERARCHY
ROOT root
{
	OFFSET	0	13.1	24.9
	CHANNELS 6  Xposition Yposition Zposition Xrotation Yrotation Zrotation
	JOINT spine_1
	{
		OFFSET	0	9.99999	0
		CHANNELS 3  Xrotation Yrotation Zrotation
		JOINT spine_2
		{
			OFFSET	0	112	-10
			CHANNELS 3  Xrotation Yrotation Zrotation
			JOINT spine_3
			{
				OFFSET	0	206.5	19.3
				CHANNELS 3  Xrotation Yrotation Zrotation
				JOINT spine_4
				{
					OFFSET	0	110.4	14.6
					CHANNELS 3  Xrotation Yrotation Zrotation
					JOINT neck_1
					{
						OFFSET	0	71.8	-50.3
						CHANNELS 3  Xrotation Yrotation Zrotation
						JOINT neck_2
						{
							OFFSET	0	86.2	-25.8
							CHANNELS 3  Xrotation Yrotation Zrotation
							JOINT head_ee
							{
								OFFSET	0	179.8	-8.7
								CHANNELS 3  Xrotation Yrotation Zrotation
								End Site
								{
									OFFSET	1	0	0
								}
							}
						}
					}
					JOINT left_clavicle
					{
						OFFSET	-43.2	22.4	-70.8
						CHANNELS 3  Xrotation Yrotation Zrotation
						JOINT left_shoulder
						{
							OFFSET	-93.9	-5.79999	48.7
							CHANNELS 3  Xrotation Yrotation Zrotation
							JOINT left_elbow
							{
								OFFSET	-291.4	-30.8	15.2
								CHANNELS 3  Xrotation Yrotation Zrotation
								JOINT left_lowarm_twist
								{
									OFFSET	-110.7	-3.89999	13.6
									CHANNELS 3  Xrotation Yrotation Zrotation
									JOINT left_hand
									{
										OFFSET	-110.7	-3.89999	13.6
										CHANNELS 3  Xrotation Yrotation Zrotation
										JOINT left_ee
										{
											OFFSET	-80.8	-5.10001	12.1
											CHANNELS 3  Xrotation Yrotation Zrotation
											End Site
											{
												OFFSET	1	0	0
											}
										}
									}
								}
							}
						}
					}
					JOINT right_clavicle
					{
						OFFSET	43.2	22.4	-70.8
						CHANNELS 3  Xrotation Yrotation Zrotation
						JOINT right_shoulder
						{
							OFFSET	93.9	-5.79999	48.7
							CHANNELS 3  Xrotation Yrotation Zrotation
							JOINT right_elbow
							{
								OFFSET	291.4	-30.8	15.2
								CHANNELS 3  Xrotation Yrotation Zrotation
								JOINT right_lowarm_twist
								{
									OFFSET	110.7	-3.89999	13.6
									CHANNELS 3  Xrotation Yrotation Zrotation
									JOINT right_hand
									{
										OFFSET	110.7	-3.89999	13.6
										CHANNELS 3  Xrotation Yrotation Zrotation
										JOINT right_ee
										{
											OFFSET	80.8	-5.10001	12.1
											CHANNELS 3  Xrotation Yrotation Zrotation
											End Site
											{
												OFFSET	1	0	0
											}
										}
									}
								}
							}
						}
					}
				}
			}
		}
	}
	JOINT left_hip
	{
		OFFSET	-82.8	-127.5	0.300001
		CHANNELS 3  Xrotation Yrotation Zrotation
		JOINT left_knee
		{
			OFFSET	-28.2	-396.7	2.2
			CHANNELS 3  Xrotation Yrotation Zrotation
			JOINT left_ankle
			{
				OFFSET	-11.7	-411.3	35.4
				CHANNELS 3  Xrotation Yrotation Zrotation
				JOINT left_toes
				{
					OFFSET	0	-60	-88.6
					CHANNELS 3  Xrotation Yrotation Zrotation
					JOINT left_foot_ee
					{
						OFFSET	-22.5	-16.5	-42.2
						CHANNELS 3  Xrotation Yrotation Zrotation
						End Site
						{
							OFFSET	1	0	0
						}
					}
				}
			}
		}
	}
	JOINT right_hip
	{
		OFFSET	82.8	-127.5	0.300001
		CHANNELS 3  Xrotation Yrotation Zrotation
		JOINT right_knee
		{
			OFFSET	28.2	-396.7	2.2
			CHANNELS 3  Xrotation Yrotation Zrotation
			JOINT right_ankle
			{
				OFFSET	11.7	-411.3	35.4
				CHANNELS 3  Xrotation Yrotation Zrotation
				JOINT right_toes
				{
					OFFSET	0	-60	-88.6
					CHANNELS 3  Xrotation Yrotation Zrotation
					JOINT right_foot_ee
					{
						OFFSET	22.5	-16.5	-42.2
						CHANNELS 3  Xrotation Yrotation Zrotation
						End Site
						{
							OFFSET	1	0	0
						}
					}
				}
			}
		}
	}
}
MOTION
Frames: 8
Frame Time: 0.02
3177.02 653.055 -1669.29 -41.0861023749 79.0483489964 42.9162584309 2.81196 -0.106251 -1.17055 2.81272 -0.0315558 -1.17494 2.81317 0.15915 -1.16454 2.81128 -0.0267515 -1.17506 -12.0684 9.94215 8.60447 -11.9567 13.3417 11.036 -0.0 0.0 -0.0 0.887499 22.3018 3.8317 -29.6106 -30.625 66.6863 0.445675 -12.4499 0.0486126 -2.2114 -0.0831475 0.270127 3.51657 23.4711 31.3583 -0.0 0.0 -0.0 9.66303 0.485986 -18.9815 17.3717 -4.91486 -74.2947 3.47466 59.8299 -1.99964 -34.7626 2.41216 -3.6597 9.36442 20.8638 -63.8992 0.0 0.0 0.0 34.0384 -7.90761 -4.90462 -4.3964 0.155882 0.656543 2.32625 -5.98951 -0.349279 -19.5614 0.0 0.0 -0.0 0.0 -0.0 -17.8065 17.1414 -5.99243 1.23944 0.0530191 0.182801 41.2499 -9.01777 4.97758 -23.0597 0.0 0.0 0.0 0.0 0.0 
3158.69948312 654.234 -1667.70391639 -41.8865997904 78.8344037478 43.8340007323 2.85275 -0.0321373 -1.2381 2.8536 0.0467051 -1.23764 2.85234 0.245722 -1.2139 2.85028 0.0509405 -1.23747 -12.0407 9.79378 9.04162 -11.8987 12.7709 11.4056 -0.0 0.0 -0.0 1.27446 20.9299 4.27311 -29.4362 -30.8831 66.8245 0.435488 -12.1739 0.0464402 0.257474 0.00900082 -0.0316511 4.23963 25.2458 36.835 -0.0 0.0 -0.0 9.53439 -0.580503 -18.6721 16.7971 -4.56365 -74.8079 3.35253 58.9325 -1.89453 -37.0829 2.64641 -3.84338 9.54419 21.9828 -64.567 0.0 0.0 0.0 33.6837 -7.57708 -4.63976 -4.29892 0.152974 0.641866 1.87775 -5.52793 -0.281723 -18.7766 0.0 0.0 -0.0 0.0 -0.0 -17.7948 17.0717 -6.01754 0.314597 0.0130822 0.0465048 40.3098 -9.02114 4.89691 -22.8664 0.0 0.0 0.0 0.0 0.0 
3158.70244585 654.234 -1667.67005866 -42.2473588789 78.9130169884 44.2016703252 2.85275 -0.0321373 -1.2381 2.8536 0.0467051 -1.23764 2.85234 0.245722 -1.2139 2.85028 0.0509405 -1.23747 -12.0407 9.79378 9.04162 -11.8987 12.7709 11.4056 -0.0 0.0 -0.0 1.27446 20.9299 4.27311 -29.4362 -30.8831 66.8245 0.435488 -12.1739 0.0464402 0.257474 0.00900082 -0.0316511 4.23963 25.2458 36.835 -0.0 0.0 -0.0 9.53439 -0.580503 -18.6721 16.7971 -4.56365 -74.8079 3.35253 58.9325 -1.89453 -37.0829 2.64641 -3.84338 9.54419 21.9828 -64.567 0.0 0.0 0.0 33.6837 -7.57708 -4.63976 -4.29892 0.152974 0.641866 1.87775 -5.52793 -0.281723 -18.7766 0.0 0.0 -0.0 0.0 -0.0 -17.7948 17.0717 -6.01754 0.314597 0.0130822 0.0465048 40.3098 -9.02114 4.89691 -22.8664 0.0 0.0 0.0 0.0 0.0 
3135.87382759 654.394 -1670.02627169 -41.6523614814 79.1673219633 43.4055696743 2.86344 0.0159701 -1.12489 2.86414 0.0875131 -1.1216 2.86221 0.267092 -1.09285 2.86056 0.0911569 -1.12131 -13.073 9.7343 10.168 -12.8747 12.1641 12.5603 -0.0 0.0 -0.0 1.2658 20.4088 4.22117 -29.2194 -30.4239 66.7923 0.447706 -12.5049 0.0490514 2.61012 0.0846235 -0.32261 4.535 24.644 38.9995 -0.0 0.0 -0.0 9.43095 -0.846383 -18.4496 15.5751 -4.5936 -74.9583 3.05185 56.505 -1.64027 -36.4063 2.57733 -3.79079 9.87395 23.4116 -66.6989 0.0 0.0 0.0 33.8337 -7.35864 -4.89003 -9.1326 0.266926 1.37467 4.97461 -7.27932 -0.745456 -16.1959 0.0 0.0 -0.0 0.0 -0.0 -18.2565 17.0208 -5.90997 -1.23485 -0.0488723 -0.1832 40.1594 -10.6274 4.89544 -22.4921 0.0 0.0 0.0 0.0 0.0 
3094.94490055 666.695 -1667.51021054 -41.8803562798 78.8606651001 43.7318397944 2.84998 -0.0188074 -1.18912 2.85076 0.0568919 -1.1879 2.84935 0.247814 -1.16316 2.84747 0.0610171 -1.1877 -15.3328 11.2494 11.557 -15.1385 14.7594 14.6137 -0.0 0.0 -0.0 2.3114 18.9793 5.67933 -26.3242 -30.7165 67.0001 0.35006 -9.83801 0.0301278 7.11717 0.195847 -0.887456 5.06336 25.691 43.3403 -0.0 0.0 -0.0 9.0331 -0.145368 -17.6687 11.2752 -3.91964 -74.0927 2.85108 54.6894 -1.47459 -38.1612 2.75776 -3.92549 9.9201 23.0153 -68.0846 0.0 0.0 0.0 31.4791 -6.68038 -3.95461 -10.2183 0.28399 1.5404 10.7306 -5.59711 -1.5641 -18.1558 0.0 0.0 -0.0 0.0 -0.0 -18.161 17.3123 -5.19952 -2.73048 -0.102755 -0.406403 39.1492 -11.9352 4.81766 -23.8582 0.0 0.0 0.0 0.0 0.0 
3061.32398388 667.784 -1669.1843828 -38.2744036316 77.6158148474 39.3919318195 3.10877 0.022457 -0.87925 3.10919 0.0783583 -0.87604 3.10784 0.214825 -0.8529 3.10683 0.0774348 -0.876122 -16.593 12.2678 12.2547 -16.4372 16.6377 15.81 -0.0 0.0 -0.0 3.02868 17.9415 6.72665 -23.3563 -30.8328 64.8845 0.415649 -11.6348 0.042348 9.28613 0.233455 -1.16195 4.80826 25.5429 41.2462 -0.0 0.0 -0.0 9.25221 0.502059 -18.1378 7.34121 -4.2017 -72.8571 2.58271 51.9796 -1.25927 -38.6914 2.81308 -3.9651 9.94313 21.9846 -70.4396 0.0 0.0 0.0 30.5725 -6.07957 -3.42605 -12.9146 0.312759 1.95307 16.4765 -5.69967 -2.34576 -17.7876 0.0 0.0 -0.0 0.0 -0.0 -18.3911 17.4975 -4.819 -4.84555 -0.168958 -0.724233 39.8862 -13.4138 4.90052 -23.2061 0.0 0.0 0.0 0.0 0.0 
3044.10775509 667.259 -1673.78710483 -33.2165794691 76.8902341587 34.489194248 3.14397 -0.0280676 -0.975514 3.1445 0.0340608 -0.975323 3.14373 0.18605 -0.958021 3.14245 0.032421 -0.975379 -16.3737 12.209 13.5434 -16.0853 15.7295 16.9292 -0.0 0.0 -0.0 3.33227 17.787 7.18947 -22.1961 -30.9913 64.5598 0.390529 -10.9492 0.037429 11.0303 0.256142 -1.38358 4.66399 25.3652 40.0858 -0.0 0.0 -0.0 9.26369 0.490989 -18.161 5.15829 -4.66967 -72.4163 2.43632 50.3477 -1.14522 -36.2199 2.55842 -3.77617 10.2218 22.2144 -74.9286 0.0 0.0 0.0 28.2627 -5.86519 -3.3949 -12.4588 0.30926 1.88321 17.9637 -5.72112 -2.54023 -17.6949 0.0 0.0 -0.0 0.0 -0.0 -16.2842 17.5628 -4.57726 -11.1442 -0.296059 -1.68196 39.3192 -11.3314 4.82714 -21.9664 0.0 0.0 0.0 0.0 0.0 
3026.03569652 667.91 -1674.65676846 -30.6643162682 76.2226106094 31.8685583821 3.17023 -0.101635 -0.962017 3.17074 -0.0402164 -0.966535 3.17124 0.11084 -0.961 3.16995 -0.042316 -0.966445 -17.4011 12.8946 13.2551 -17.226 17.5029 17.098 -0.0 0.0 -0.0 4.07428 17.3715 8.33429 -20.4445 -31.2125 64.4045 0.428421 -11.9822 0.0449616 12.4881 0.269921 -1.56926 4.66493 25.9583 40.1515 -0.0 0.0 -0.0 9.26702 -0.13864 -18.1451 3.21243 -5.71281 -71.8828 2.23332 47.8832 -0.991714 -39.849 2.93512 -4.04979 10.0887 22.2891 -72.2654 0.0 0.0 0.0 27.4704 -5.71279 -3.30906 -14.1668 0.319511 2.14508 19.2336 -5.80238 -2.70421 -17.4137 0.0 0.0 -0.0 0.0 -0.0 -14.0061 17.4647 -4.92176 -18.1123 -0.31333 -2.75028 41.3645 -12.2835 5.01629 -19.5061 0.0 0.0 0.0 0.0 0.0 
